<mxfile host="app.diagrams.net" modified="2023-11-19T08:04:48.030Z" agent="Mozilla/5.0 (Macintosh; Intel Mac OS X 10_15_7) AppleWebKit/537.36 (KHTML, like Gecko) Chrome/119.0.0.0 Safari/537.36" etag="o6DTjRSYcwCbJ-IWaba9" version="22.1.3" type="device">
  <diagram name="Page-1" id="oWWhBqMe4i1d3SGzoOoB">
    <mxGraphModel dx="1583" dy="2028" grid="1" gridSize="10" guides="1" tooltips="1" connect="1" arrows="1" fold="1" page="1" pageScale="1" pageWidth="827" pageHeight="1169" math="0" shadow="0">
      <root>
        <mxCell id="0" />
        <mxCell id="1" parent="0" />
        <mxCell id="HlT4XJ6Y2E2eX6YT7slr-1" style="edgeStyle=orthogonalEdgeStyle;rounded=0;orthogonalLoop=1;jettySize=auto;html=1;entryX=0;entryY=0.5;entryDx=0;entryDy=0;" edge="1" parent="1" source="HlT4XJ6Y2E2eX6YT7slr-2" target="HlT4XJ6Y2E2eX6YT7slr-4">
          <mxGeometry relative="1" as="geometry" />
        </mxCell>
        <mxCell id="HlT4XJ6Y2E2eX6YT7slr-2" value="Director" style="swimlane;whiteSpace=wrap;html=1;" vertex="1" parent="1">
          <mxGeometry x="60" y="30" width="200" height="200" as="geometry" />
        </mxCell>
        <mxCell id="HlT4XJ6Y2E2eX6YT7slr-3" value="getProduct(Builder builder)" style="text;html=1;strokeColor=none;fillColor=none;align=center;verticalAlign=middle;whiteSpace=wrap;rounded=0;" vertex="1" parent="HlT4XJ6Y2E2eX6YT7slr-2">
          <mxGeometry y="60" width="180" height="30" as="geometry" />
        </mxCell>
        <mxCell id="HlT4XJ6Y2E2eX6YT7slr-17" style="edgeStyle=orthogonalEdgeStyle;rounded=0;orthogonalLoop=1;jettySize=auto;html=1;entryX=0.5;entryY=1;entryDx=0;entryDy=0;" edge="1" parent="1" source="HlT4XJ6Y2E2eX6YT7slr-4" target="HlT4XJ6Y2E2eX6YT7slr-13">
          <mxGeometry relative="1" as="geometry" />
        </mxCell>
        <mxCell id="HlT4XJ6Y2E2eX6YT7slr-18" style="edgeStyle=orthogonalEdgeStyle;rounded=0;orthogonalLoop=1;jettySize=auto;html=1;" edge="1" parent="1" source="HlT4XJ6Y2E2eX6YT7slr-4">
          <mxGeometry relative="1" as="geometry">
            <mxPoint x="770" y="100" as="targetPoint" />
          </mxGeometry>
        </mxCell>
        <mxCell id="HlT4XJ6Y2E2eX6YT7slr-19" style="edgeStyle=orthogonalEdgeStyle;rounded=0;orthogonalLoop=1;jettySize=auto;html=1;entryX=0.5;entryY=1;entryDx=0;entryDy=0;" edge="1" parent="1" source="HlT4XJ6Y2E2eX6YT7slr-4" target="HlT4XJ6Y2E2eX6YT7slr-15">
          <mxGeometry relative="1" as="geometry" />
        </mxCell>
        <mxCell id="HlT4XJ6Y2E2eX6YT7slr-20" style="edgeStyle=orthogonalEdgeStyle;rounded=0;orthogonalLoop=1;jettySize=auto;html=1;" edge="1" parent="1" source="HlT4XJ6Y2E2eX6YT7slr-4">
          <mxGeometry relative="1" as="geometry">
            <mxPoint x="1010" y="100" as="targetPoint" />
          </mxGeometry>
        </mxCell>
        <mxCell id="HlT4XJ6Y2E2eX6YT7slr-4" value="Builder&lt;br&gt;&amp;lt;&amp;lt;Abstract&amp;gt;&amp;gt;" style="rounded=0;whiteSpace=wrap;html=1;" vertex="1" parent="1">
          <mxGeometry x="360" y="140" width="120" height="60" as="geometry" />
        </mxCell>
        <mxCell id="HlT4XJ6Y2E2eX6YT7slr-5" style="edgeStyle=orthogonalEdgeStyle;rounded=0;orthogonalLoop=1;jettySize=auto;html=1;entryX=0.25;entryY=1;entryDx=0;entryDy=0;" edge="1" parent="1" source="HlT4XJ6Y2E2eX6YT7slr-6" target="HlT4XJ6Y2E2eX6YT7slr-4">
          <mxGeometry relative="1" as="geometry" />
        </mxCell>
        <mxCell id="HlT4XJ6Y2E2eX6YT7slr-6" value="HPDesktopBuilder" style="swimlane;whiteSpace=wrap;html=1;" vertex="1" parent="1">
          <mxGeometry x="210" y="290" width="200" height="200" as="geometry" />
        </mxCell>
        <mxCell id="HlT4XJ6Y2E2eX6YT7slr-7" style="edgeStyle=orthogonalEdgeStyle;rounded=0;orthogonalLoop=1;jettySize=auto;html=1;entryX=0.75;entryY=1;entryDx=0;entryDy=0;" edge="1" parent="1" source="HlT4XJ6Y2E2eX6YT7slr-8" target="HlT4XJ6Y2E2eX6YT7slr-4">
          <mxGeometry relative="1" as="geometry" />
        </mxCell>
        <mxCell id="HlT4XJ6Y2E2eX6YT7slr-8" value="DellDesktopBuilder" style="swimlane;whiteSpace=wrap;html=1;" vertex="1" parent="1">
          <mxGeometry x="450" y="290" width="200" height="200" as="geometry" />
        </mxCell>
        <mxCell id="HlT4XJ6Y2E2eX6YT7slr-24" style="edgeStyle=orthogonalEdgeStyle;rounded=0;orthogonalLoop=1;jettySize=auto;html=1;" edge="1" parent="1" source="HlT4XJ6Y2E2eX6YT7slr-9" target="HlT4XJ6Y2E2eX6YT7slr-14">
          <mxGeometry relative="1" as="geometry" />
        </mxCell>
        <mxCell id="HlT4XJ6Y2E2eX6YT7slr-9" value="Product" style="swimlane;whiteSpace=wrap;html=1;" vertex="1" parent="1">
          <mxGeometry x="710" y="-290" width="180" height="170" as="geometry" />
        </mxCell>
        <mxCell id="HlT4XJ6Y2E2eX6YT7slr-10" value="has-a" style="text;html=1;strokeColor=none;fillColor=none;align=center;verticalAlign=middle;whiteSpace=wrap;rounded=0;" vertex="1" parent="1">
          <mxGeometry x="270" y="100" width="60" height="30" as="geometry" />
        </mxCell>
        <mxCell id="HlT4XJ6Y2E2eX6YT7slr-11" value="is-a" style="text;html=1;strokeColor=none;fillColor=none;align=center;verticalAlign=middle;whiteSpace=wrap;rounded=0;" vertex="1" parent="1">
          <mxGeometry x="300" y="210" width="60" height="30" as="geometry" />
        </mxCell>
        <mxCell id="HlT4XJ6Y2E2eX6YT7slr-12" value="is-a" style="text;html=1;strokeColor=none;fillColor=none;align=center;verticalAlign=middle;whiteSpace=wrap;rounded=0;" vertex="1" parent="1">
          <mxGeometry x="480" y="220" width="60" height="30" as="geometry" />
        </mxCell>
        <mxCell id="HlT4XJ6Y2E2eX6YT7slr-13" value="Monitor" style="swimlane;whiteSpace=wrap;html=1;" vertex="1" parent="1">
          <mxGeometry x="590" y="40" width="100" height="60" as="geometry" />
        </mxCell>
        <mxCell id="HlT4XJ6Y2E2eX6YT7slr-14" value="Mouse" style="swimlane;whiteSpace=wrap;html=1;" vertex="1" parent="1">
          <mxGeometry x="710" y="40" width="100" height="60" as="geometry" />
        </mxCell>
        <mxCell id="HlT4XJ6Y2E2eX6YT7slr-15" value="Keyboard" style="swimlane;whiteSpace=wrap;html=1;" vertex="1" parent="1">
          <mxGeometry x="830" y="40" width="100" height="60" as="geometry" />
        </mxCell>
        <mxCell id="HlT4XJ6Y2E2eX6YT7slr-16" value="CPU" style="swimlane;whiteSpace=wrap;html=1;" vertex="1" parent="1">
          <mxGeometry x="950" y="40" width="100" height="60" as="geometry" />
        </mxCell>
        <mxCell id="HlT4XJ6Y2E2eX6YT7slr-22" value="has-a" style="text;html=1;strokeColor=none;fillColor=none;align=center;verticalAlign=middle;whiteSpace=wrap;rounded=0;" vertex="1" parent="1">
          <mxGeometry x="510" y="140" width="60" height="30" as="geometry" />
        </mxCell>
        <mxCell id="HlT4XJ6Y2E2eX6YT7slr-23" style="edgeStyle=orthogonalEdgeStyle;rounded=0;orthogonalLoop=1;jettySize=auto;html=1;entryX=0.59;entryY=-0.083;entryDx=0;entryDy=0;entryPerimeter=0;" edge="1" parent="1" source="HlT4XJ6Y2E2eX6YT7slr-9" target="HlT4XJ6Y2E2eX6YT7slr-13">
          <mxGeometry relative="1" as="geometry" />
        </mxCell>
        <mxCell id="HlT4XJ6Y2E2eX6YT7slr-25" style="edgeStyle=orthogonalEdgeStyle;rounded=0;orthogonalLoop=1;jettySize=auto;html=1;entryX=0.6;entryY=0;entryDx=0;entryDy=0;entryPerimeter=0;" edge="1" parent="1" source="HlT4XJ6Y2E2eX6YT7slr-9" target="HlT4XJ6Y2E2eX6YT7slr-15">
          <mxGeometry relative="1" as="geometry" />
        </mxCell>
        <mxCell id="HlT4XJ6Y2E2eX6YT7slr-26" style="edgeStyle=orthogonalEdgeStyle;rounded=0;orthogonalLoop=1;jettySize=auto;html=1;entryX=0.57;entryY=-0.083;entryDx=0;entryDy=0;entryPerimeter=0;" edge="1" parent="1" source="HlT4XJ6Y2E2eX6YT7slr-9" target="HlT4XJ6Y2E2eX6YT7slr-16">
          <mxGeometry relative="1" as="geometry" />
        </mxCell>
        <mxCell id="HlT4XJ6Y2E2eX6YT7slr-27" value="has-a" style="text;html=1;strokeColor=none;fillColor=none;align=center;verticalAlign=middle;whiteSpace=wrap;rounded=0;" vertex="1" parent="1">
          <mxGeometry x="610" y="-110" width="60" height="30" as="geometry" />
        </mxCell>
        <mxCell id="HlT4XJ6Y2E2eX6YT7slr-28" value="has-a" style="text;html=1;strokeColor=none;fillColor=none;align=center;verticalAlign=middle;whiteSpace=wrap;rounded=0;" vertex="1" parent="1">
          <mxGeometry x="767" y="-100" width="60" height="30" as="geometry" />
        </mxCell>
        <mxCell id="HlT4XJ6Y2E2eX6YT7slr-29" value="has-a" style="text;html=1;strokeColor=none;fillColor=none;align=center;verticalAlign=middle;whiteSpace=wrap;rounded=0;" vertex="1" parent="1">
          <mxGeometry x="980" y="-140" width="60" height="30" as="geometry" />
        </mxCell>
      </root>
    </mxGraphModel>
  </diagram>
</mxfile>
